<?xml version="1.0" encoding="UTF-8" standalone="no" ?>
<!DOCTYPE svg PUBLIC "-//W3C//DTD SVG 1.1//EN" "http://www.w3.org/Graphics/SVG/1.1/DTD/svg11.dtd">
<svg xmlns="http://www.w3.org/2000/svg" xmlns:xlink="http://www.w3.org/1999/xlink" version="1.1" width="1280" height="1024" viewBox="0 0 1280 1024" xml:space="preserve">
<desc>Created with Fabric.js 3.1.0</desc>
<defs>
</defs>
<g transform="matrix(1.9692780337941629 0 0 1.9692780337941629 640.0153846153846 512.012312418764)" id="background-logo"  >
<rect style="stroke: none; stroke-width: 1; stroke-dasharray: none; stroke-linecap: butt; stroke-dashoffset: 0; stroke-linejoin: miter; stroke-miterlimit: 10; fill: rgb(165,166,165); fill-rule: nonzero; opacity: 1;"  paint-order="stroke"  x="-325" y="-260" rx="0" ry="0" width="650" height="520" />
</g>
<g transform="matrix(1.9692780337941629 0 0 1.9692780337941629 638.6211203824737 727.7104482956033)" id="text-logo-path"  >
<path style="stroke: none; stroke-width: 1; stroke-dasharray: none; stroke-linecap: butt; stroke-dashoffset: 0; stroke-linejoin: miter; stroke-miterlimit: 10; fill: rgb(35,103,109); fill-rule: nonzero; opacity: 1;"  paint-order="stroke"  transform=" translate(-322.13500000000005, 13.735)" d="M 2.29 -19.7 L 2.29 -19.7 Q 2.29 -23.46 3.67 -27.02 Q 5.05 -30.57 7.46 -33.31 Q 9.88 -36.05 13.43 -37.71 Q 16.99 -39.36 21.05 -39.36 L 21.05 -39.36 Q 23 -39.36 24.93 -38.91 Q 26.86 -38.47 28.68 -37.51 Q 30.49 -36.56 31.88 -35.22 Q 33.26 -33.87 34.1 -31.92 Q 34.94 -29.96 34.94 -27.68 L 34.94 -27.68 Q 34.94 -25.9 33.59 -24.41 Q 32.25 -22.93 29.96 -22.93 L 29.96 -22.93 Q 28.13 -22.93 26.94 -23.91 Q 25.75 -24.88 25.64 -26.63 L 25.64 -26.63 L 25.64 -26.99 Q 25.64 -28.97 26.95 -30.01 Q 28.26 -31.05 29.73 -31.05 L 29.73 -31.05 Q 28.62 -32.7 26.74 -33.58 Q 24.86 -34.46 21.79 -34.48 L 21.79 -34.48 Q 21.73 -34.48 21.66 -34.48 L 21.66 -34.48 Q 19.55 -34.48 17.77 -33.64 L 17.77 -33.64 Q 15.95 -32.78 14.69 -31.31 Q 13.43 -29.83 12.56 -27.89 Q 11.68 -25.95 11.27 -23.85 Q 10.87 -21.76 10.87 -19.6 L 10.87 -19.6 Q 10.87 -17.34 11.3 -15.21 Q 11.73 -13.08 12.66 -11.16 Q 13.58 -9.24 14.89 -7.79 Q 16.2 -6.35 18.07 -5.51 Q 19.93 -4.67 22.14 -4.67 L 22.14 -4.67 Q 24.02 -4.67 25.57 -5.23 Q 27.12 -5.79 28.15 -6.64 Q 29.17 -7.49 29.97 -8.75 Q 30.77 -10 31.23 -11.16 Q 31.69 -12.31 32.04 -13.74 L 32.04 -13.74 L 36.71 -13.74 Q 35.72 -6.91 31.59 -3.11 Q 27.45 0.69 20.34 0.69 L 20.34 0.69 Q 16.22 0.69 12.78 -0.96 Q 9.34 -2.62 7.07 -5.43 Q 4.8 -8.25 3.54 -11.93 Q 2.29 -15.62 2.29 -19.7 Z M 42.94 -34.43 L 37.53 -34.43 L 37.53 -38.59 L 49.44 -38.59 L 49.44 -22.78 Q 52.1 -27.98 58.5 -27.98 L 58.5 -27.98 Q 59.57 -27.98 60.58 -27.82 Q 61.6 -27.65 62.94 -27.04 Q 64.29 -26.43 65.25 -25.43 Q 66.22 -24.43 66.9 -22.56 Q 67.59 -20.69 67.59 -18.21 L 67.59 -18.21 L 67.59 -4.37 L 72.59 -4.37 L 72.59 0 L 56.47 0 L 56.47 -4.37 L 61.09 -4.37 L 61.09 -17.82 Q 61.09 -20.34 59.77 -21.9 Q 58.45 -23.46 56.52 -23.46 L 56.52 -23.46 Q 49.44 -23.46 49.44 -13.63 L 49.44 -13.63 L 49.44 -4.37 L 54.06 -4.37 L 54.06 0 L 38.11 0 L 38.11 -4.37 L 42.94 -4.37 L 42.94 -34.43 Z M 75.11 -6.04 L 75.11 -6.04 Q 75.11 -7.77 75.99 -9.12 Q 76.88 -10.46 78.3 -11.3 Q 79.73 -12.14 81.44 -12.82 Q 83.15 -13.51 84.88 -14.12 Q 86.61 -14.73 88.03 -15.39 Q 89.45 -16.05 90.34 -17.06 Q 91.23 -18.08 91.23 -19.4 L 91.23 -19.4 Q 91.23 -24.76 85.92 -24.76 L 85.92 -24.76 Q 83.66 -24.76 81.96 -23.92 L 81.96 -23.92 Q 82.8 -23.82 83.56 -22.67 Q 84.32 -21.53 84.32 -20.44 L 84.32 -20.44 L 84.32 -20.24 Q 84.32 -18.69 83.17 -17.63 Q 82.01 -16.58 80.16 -16.58 L 80.16 -16.58 Q 78.23 -16.58 77.11 -17.8 Q 75.99 -19.02 75.99 -20.9 L 75.99 -20.9 L 75.99 -21 Q 76.02 -23.08 77.58 -24.72 Q 79.14 -26.36 81.52 -27.19 Q 83.89 -28.03 86.51 -28.03 L 86.51 -28.03 Q 88.23 -28.03 89.77 -27.76 Q 91.3 -27.5 92.79 -26.85 Q 94.28 -26.2 95.34 -25.19 Q 96.41 -24.17 97.07 -22.55 Q 97.73 -20.92 97.73 -18.87 L 97.73 -18.87 L 97.73 -8.05 Q 97.73 -3.58 100.27 -3.58 L 100.27 -3.58 Q 101.05 -3.58 101.58 -3.96 Q 102.1 -4.34 102.32 -5.04 Q 102.55 -5.74 102.64 -6.41 Q 102.73 -7.08 102.73 -7.95 L 102.73 -7.95 L 102.73 -11.32 L 106.11 -11.32 L 106.11 -7.79 Q 106.11 -5.31 105.54 -3.57 Q 104.96 -1.83 103.92 -0.93 Q 102.88 -0.03 101.69 0.36 Q 100.5 0.74 98.97 0.74 L 98.97 0.74 L 98.77 0.74 Q 92.88 0.63 91.53 -4.32 L 91.53 -4.32 Q 90.16 -2.03 87.72 -0.67 Q 85.29 0.69 82.29 0.69 L 82.29 0.69 Q 79.02 0.69 77.06 -1.05 Q 75.11 -2.79 75.11 -6.04 Z M 81.3 -6.2 L 81.3 -6.2 Q 81.3 -4.93 81.86 -4.13 Q 82.42 -3.33 83.64 -3.33 L 83.64 -3.33 Q 84.91 -3.33 86.65 -4.2 Q 88.38 -5.08 89.73 -6.56 Q 91.08 -8.05 91.08 -9.52 L 91.08 -9.52 L 91.08 -14.14 Q 89.5 -12.87 87.79 -11.84 Q 86.07 -10.82 85.02 -10.3 Q 83.97 -9.78 83.05 -9.19 Q 82.14 -8.61 81.72 -7.91 Q 81.3 -7.21 81.3 -6.2 Z M 105.14 -25.06 L 105.14 -23.31 L 110.6 -23.31 L 110.6 -7.08 Q 110.6 -5.13 111.38 -3.58 Q 112.15 -2.03 113.36 -1.13 Q 114.56 -0.23 115.91 0.23 Q 117.25 0.69 118.55 0.69 L 118.55 0.69 Q 123.42 0.69 125.43 -1.85 Q 127.44 -4.39 127.44 -9.78 L 127.44 -9.78 L 127.44 -12.54 L 123.75 -12.54 L 123.75 -9.47 Q 123.75 -6.75 122.94 -5.51 Q 122.13 -4.27 120.43 -4.27 L 120.43 -4.27 Q 119.46 -4.27 118.79 -4.67 Q 118.12 -5.08 117.83 -5.7 Q 117.53 -6.32 117.42 -6.82 Q 117.3 -7.31 117.3 -7.74 L 117.3 -7.74 L 117.3 -23.23 L 126.57 -23.23 L 126.57 -27.24 L 117.3 -27.24 L 117.3 -37.71 Q 117.3 -38.11 117.01 -38.35 Q 116.72 -38.59 116.31 -38.59 L 116.31 -38.59 Q 115.4 -38.59 115.17 -37.71 L 115.17 -37.71 Q 111.97 -27.35 105.14 -25.06 L 105.14 -25.06 Z M 127.69 -25.06 L 127.69 -23.31 L 133.15 -23.31 L 133.15 -7.08 Q 133.15 -5.13 133.92 -3.58 Q 134.7 -2.03 135.9 -1.13 Q 137.11 -0.23 138.46 0.23 Q 139.8 0.69 141.1 0.69 L 141.1 0.69 Q 145.97 0.69 147.98 -1.85 Q 149.98 -4.39 149.98 -9.78 L 149.98 -9.78 L 149.98 -12.54 L 146.3 -12.54 L 146.3 -9.47 Q 146.3 -6.75 145.49 -5.51 Q 144.68 -4.27 142.97 -4.27 L 142.97 -4.27 Q 142.01 -4.27 141.34 -4.67 Q 140.66 -5.08 140.37 -5.7 Q 140.08 -6.32 139.97 -6.82 Q 139.85 -7.31 139.85 -7.74 L 139.85 -7.74 L 139.85 -23.23 L 149.12 -23.23 L 149.12 -27.24 L 139.85 -27.24 L 139.85 -37.71 Q 139.85 -38.11 139.56 -38.35 Q 139.27 -38.59 138.86 -38.59 L 138.86 -38.59 Q 137.95 -38.59 137.72 -37.71 L 137.72 -37.71 Q 134.52 -27.35 127.69 -25.06 L 127.69 -25.06 Z M 153.66 -6.04 L 153.66 -6.04 Q 153.66 -7.77 154.55 -9.12 Q 155.44 -10.46 156.86 -11.3 Q 158.29 -12.14 160 -12.82 Q 161.71 -13.51 163.44 -14.12 Q 165.17 -14.73 166.59 -15.39 Q 168.01 -16.05 168.9 -17.06 Q 169.79 -18.08 169.79 -19.4 L 169.79 -19.4 Q 169.79 -24.76 164.48 -24.76 L 164.48 -24.76 Q 162.22 -24.76 160.52 -23.92 L 160.52 -23.92 Q 161.36 -23.82 162.12 -22.67 Q 162.88 -21.53 162.88 -20.44 L 162.88 -20.44 L 162.88 -20.24 Q 162.88 -18.69 161.73 -17.63 Q 160.57 -16.58 158.72 -16.58 L 158.72 -16.58 Q 156.79 -16.58 155.67 -17.8 Q 154.55 -19.02 154.55 -20.9 L 154.55 -20.9 L 154.55 -21 Q 154.58 -23.08 156.14 -24.72 Q 157.7 -26.36 160.08 -27.19 Q 162.45 -28.03 165.06 -28.03 L 165.06 -28.03 Q 166.79 -28.03 168.33 -27.76 Q 169.86 -27.5 171.35 -26.85 Q 172.83 -26.2 173.9 -25.19 Q 174.97 -24.17 175.63 -22.55 Q 176.29 -20.92 176.29 -18.87 L 176.29 -18.87 L 176.29 -8.05 Q 176.29 -3.58 178.83 -3.58 L 178.83 -3.58 Q 179.61 -3.58 180.13 -3.96 Q 180.65 -4.34 180.88 -5.04 Q 181.11 -5.74 181.2 -6.41 Q 181.29 -7.08 181.29 -7.95 L 181.29 -7.95 L 181.29 -11.32 L 184.67 -11.32 L 184.67 -7.79 Q 184.67 -5.31 184.09 -3.57 Q 183.52 -1.83 182.48 -0.93 Q 181.44 -0.03 180.25 0.36 Q 179.05 0.74 177.53 0.74 L 177.53 0.74 L 177.33 0.74 Q 171.44 0.63 170.09 -4.32 L 170.09 -4.32 Q 168.72 -2.03 166.28 -0.67 Q 163.85 0.69 160.85 0.69 L 160.85 0.69 Q 157.57 0.69 155.62 -1.05 Q 153.66 -2.79 153.66 -6.04 Z M 159.86 -6.2 L 159.86 -6.2 Q 159.86 -4.93 160.42 -4.13 Q 160.98 -3.33 162.2 -3.33 L 162.2 -3.33 Q 163.46 -3.33 165.2 -4.2 Q 166.94 -5.08 168.29 -6.56 Q 169.63 -8.05 169.63 -9.52 L 169.63 -9.52 L 169.63 -14.14 Q 168.06 -12.87 166.35 -11.84 Q 164.63 -10.82 163.58 -10.3 Q 162.53 -9.78 161.61 -9.19 Q 160.7 -8.61 160.28 -7.91 Q 159.86 -7.21 159.86 -6.2 Z M 185.94 -4.37 L 185.94 0 L 201.91 0 L 201.91 -4.37 L 197.26 -4.37 L 197.26 -13.63 Q 197.26 -22.95 203.71 -23.46 L 203.71 -23.46 Q 203.91 -23.49 204.09 -23.49 L 204.09 -23.49 Q 204.83 -23.51 205.54 -23.26 L 205.54 -23.26 Q 206.43 -22.95 207.2 -22.29 Q 207.97 -21.63 208.44 -20.4 Q 208.91 -19.17 208.91 -17.52 L 208.91 -17.52 L 208.91 -4.37 L 204.29 -4.37 L 204.29 0 L 220.04 0 L 220.04 -4.37 L 215.41 -4.37 L 215.41 -18.1 Q 215.41 -20.59 214.75 -22.47 Q 214.09 -24.35 213.13 -25.37 Q 212.16 -26.38 210.87 -27 Q 209.57 -27.63 208.55 -27.8 Q 207.52 -27.98 206.48 -27.98 L 206.48 -27.98 Q 203.35 -27.98 200.84 -26.63 Q 198.33 -25.29 197.11 -22.42 L 197.11 -22.42 L 197.11 -27.5 L 185.94 -26.94 L 185.94 -23.23 L 190.76 -23.23 L 190.76 -4.37 L 185.94 -4.37 Z M 221.66 -13.63 L 221.66 -13.63 Q 221.66 -9.6 223.32 -6.35 Q 224.99 -3.1 228.12 -1.21 Q 231.26 0.69 235.32 0.69 L 235.32 0.69 Q 239.36 0.69 242.48 -1.23 Q 245.6 -3.15 247.25 -6.39 Q 248.9 -9.62 248.9 -13.63 L 248.9 -13.63 Q 248.9 -17.67 247.25 -20.92 Q 245.6 -24.17 242.47 -26.08 Q 239.33 -27.98 235.27 -27.98 Q 231.21 -27.98 228.08 -26.08 Q 224.96 -24.17 223.31 -20.93 Q 221.66 -17.7 221.66 -13.63 Z M 228.52 -13.3 L 228.52 -13.3 Q 228.52 -14.8 228.67 -16.14 Q 228.82 -17.47 229.26 -18.92 Q 229.71 -20.36 230.42 -21.39 Q 231.13 -22.42 232.38 -23.09 Q 233.62 -23.77 235.27 -23.77 Q 236.92 -23.77 238.16 -23.09 Q 239.41 -22.42 240.12 -21.39 Q 240.83 -20.36 241.27 -18.92 Q 241.72 -17.47 241.87 -16.14 Q 242.02 -14.8 242.02 -13.3 L 242.02 -13.3 Q 242.02 -11.58 241.68 -10.02 Q 241.34 -8.46 240.61 -7.03 Q 239.89 -5.61 238.53 -4.76 Q 237.17 -3.91 235.32 -3.91 Q 233.47 -3.91 232.08 -4.75 Q 230.7 -5.59 229.95 -7 Q 229.2 -8.4 228.86 -9.98 Q 228.52 -11.55 228.52 -13.3 Z M 252.33 -13.63 L 252.33 -13.63 Q 252.33 -9.6 254 -6.35 Q 255.66 -3.1 258.79 -1.21 Q 261.93 0.69 265.99 0.69 L 265.99 0.69 Q 270.03 0.69 273.15 -1.23 Q 276.28 -3.15 277.93 -6.39 Q 279.58 -9.62 279.58 -13.63 L 279.58 -13.63 Q 279.58 -17.67 277.93 -20.92 Q 276.28 -24.17 273.14 -26.08 Q 270 -27.98 265.94 -27.98 Q 261.88 -27.98 258.76 -26.08 Q 255.63 -24.17 253.98 -20.93 Q 252.33 -17.7 252.33 -13.63 Z M 259.19 -13.3 L 259.19 -13.3 Q 259.19 -14.8 259.34 -16.14 Q 259.49 -17.47 259.94 -18.92 Q 260.38 -20.36 261.09 -21.39 Q 261.8 -22.42 263.05 -23.09 Q 264.29 -23.77 265.94 -23.77 Q 267.59 -23.77 268.84 -23.09 Q 270.08 -22.42 270.79 -21.39 Q 271.5 -20.36 271.95 -18.92 Q 272.39 -17.47 272.54 -16.14 Q 272.7 -14.8 272.7 -13.3 L 272.7 -13.3 Q 272.7 -11.58 272.35 -10.02 Q 272.01 -8.46 271.29 -7.03 Q 270.56 -5.61 269.2 -4.76 Q 267.85 -3.91 265.99 -3.91 Q 264.14 -3.91 262.75 -4.75 Q 261.37 -5.59 260.62 -7 Q 259.87 -8.4 259.53 -9.98 Q 259.19 -11.55 259.19 -13.3 Z M 284.49 -6.33 Q 283.05 -9.6 283.05 -13.63 Q 283.05 -17.67 284.45 -20.93 Q 285.85 -24.2 288.44 -26.09 Q 291.03 -27.98 294.33 -27.98 L 294.33 -27.98 Q 296.87 -27.98 299.17 -26.75 Q 301.46 -25.52 303.16 -23.23 L 303.16 -23.23 L 305.3 -27.24 L 311.59 -27.24 L 311.59 -23.23 L 308.52 -23.23 L 308.52 -0.94 Q 308.52 1.45 308.14 3.5 Q 307.76 5.56 306.87 7.4 Q 305.98 9.24 304.61 10.54 Q 303.24 11.83 301.15 12.59 Q 299.05 13.36 296.41 13.36 L 296.41 13.36 Q 294.84 13.36 293.43 13.18 Q 292.02 13 290.62 12.54 Q 289.22 12.09 288.22 11.39 Q 287.22 10.69 286.56 9.56 Q 285.9 8.43 285.85 7.01 L 285.85 7.01 L 285.85 6.86 Q 285.85 5.28 287.05 4.2 Q 288.26 3.12 290.06 3.12 L 290.06 3.12 Q 291.64 3.12 292.64 4.11 Q 293.64 5.1 293.64 6.6 L 293.64 6.6 Q 293.64 7.92 292.73 9.62 L 292.73 9.62 Q 294.63 9.93 294.86 9.93 L 294.86 9.93 Q 298.87 9.93 300.45 7.64 Q 302.02 5.36 302.02 0 L 302.02 0 L 302.02 -3.33 Q 299.25 0.74 294.79 0.74 L 294.79 0.74 Q 291.31 0.74 288.62 -1.17 Q 285.92 -3.07 284.49 -6.33 Z M 289.91 -13.94 L 289.91 -13.94 Q 289.91 -12.44 290.05 -11.1 Q 290.19 -9.75 290.58 -8.32 Q 290.98 -6.88 291.61 -5.85 Q 292.25 -4.82 293.33 -4.15 Q 294.4 -3.48 295.83 -3.48 L 295.83 -3.48 Q 297.53 -3.48 298.77 -4.27 Q 300.02 -5.05 300.7 -6.39 Q 301.39 -7.72 301.7 -9.22 Q 302.02 -10.71 302.02 -12.42 L 302.02 -12.42 Q 302.02 -17.7 300.5 -20.55 Q 298.97 -23.41 295.88 -23.41 L 295.88 -23.41 Q 294.3 -23.41 293.11 -22.56 Q 291.92 -21.71 291.24 -20.3 Q 290.57 -18.89 290.24 -17.28 Q 289.91 -15.67 289.91 -13.94 Z M 314.54 -6.04 L 314.54 -6.04 Q 314.54 -7.77 315.43 -9.12 Q 316.32 -10.46 317.74 -11.3 Q 319.16 -12.14 320.87 -12.82 Q 322.59 -13.51 324.31 -14.12 Q 326.04 -14.73 327.46 -15.39 Q 328.88 -16.05 329.77 -17.06 Q 330.66 -18.08 330.66 -19.4 L 330.66 -19.4 Q 330.66 -24.76 325.36 -24.76 L 325.36 -24.76 Q 323.1 -24.76 321.39 -23.92 L 321.39 -23.92 Q 322.23 -23.82 322.99 -22.67 Q 323.76 -21.53 323.76 -20.44 L 323.76 -20.44 L 323.76 -20.24 Q 323.76 -18.69 322.6 -17.63 Q 321.45 -16.58 319.59 -16.58 L 319.59 -16.58 Q 317.66 -16.58 316.54 -17.8 Q 315.43 -19.02 315.43 -20.9 L 315.43 -20.9 L 315.43 -21 Q 315.45 -23.08 317.01 -24.72 Q 318.58 -26.36 320.95 -27.19 Q 323.32 -28.03 325.94 -28.03 L 325.94 -28.03 Q 327.67 -28.03 329.2 -27.76 Q 330.74 -27.5 332.22 -26.85 Q 333.71 -26.2 334.78 -25.19 Q 335.84 -24.17 336.5 -22.55 Q 337.16 -20.92 337.16 -18.87 L 337.16 -18.87 L 337.16 -8.05 Q 337.16 -3.58 339.7 -3.58 L 339.7 -3.58 Q 340.49 -3.58 341.01 -3.96 Q 341.53 -4.34 341.76 -5.04 Q 341.99 -5.74 342.08 -6.41 Q 342.16 -7.08 342.16 -7.95 L 342.16 -7.95 L 342.16 -11.32 L 345.54 -11.32 L 345.54 -7.79 Q 345.54 -5.31 344.97 -3.57 Q 344.4 -1.83 343.36 -0.93 Q 342.32 -0.03 341.12 0.36 Q 339.93 0.74 338.41 0.74 L 338.41 0.74 L 338.2 0.74 Q 332.31 0.63 330.97 -4.32 L 330.97 -4.32 Q 329.6 -2.03 327.16 -0.67 Q 324.72 0.69 321.72 0.69 L 321.72 0.69 Q 318.45 0.69 316.49 -1.05 Q 314.54 -2.79 314.54 -6.04 Z M 320.73 -6.2 L 320.73 -6.2 Q 320.73 -4.93 321.29 -4.13 Q 321.85 -3.33 323.07 -3.33 L 323.07 -3.33 Q 324.34 -3.33 326.08 -4.2 Q 327.82 -5.08 329.16 -6.56 Q 330.51 -8.05 330.51 -9.52 L 330.51 -9.52 L 330.51 -14.14 Q 328.94 -12.87 327.22 -11.84 Q 325.51 -10.82 324.45 -10.3 Q 323.4 -9.78 322.49 -9.19 Q 321.57 -8.61 321.15 -7.91 Q 320.73 -7.21 320.73 -6.2 Z M 360.72 -9.42 L 360.72 -9.42 Q 360.72 -11.38 362.01 -12.89 Q 363.29 -14.4 365.73 -14.4 L 365.73 -14.4 Q 367.63 -14.4 369.09 -13.1 Q 370.55 -11.81 370.55 -9.98 L 370.55 -9.98 Q 370.55 -8.51 369.66 -7.19 Q 368.77 -5.87 367.76 -5.66 L 367.76 -5.66 Q 369.56 -4.72 371.78 -4.23 Q 374 -3.73 376.01 -3.73 L 376.01 -3.73 Q 379.92 -3.73 382.15 -5.17 Q 384.39 -6.6 384.39 -8.94 L 384.39 -8.94 Q 384.39 -10.05 384.05 -10.84 Q 383.7 -11.63 382.64 -12.52 Q 381.57 -13.41 379.62 -14.31 Q 377.66 -15.21 374.41 -16.38 L 374.41 -16.38 Q 369.28 -18.23 366.37 -20.08 Q 363.47 -21.94 362.32 -23.89 Q 361.18 -25.85 361.13 -28.54 L 361.13 -28.54 L 361.13 -28.69 Q 361.13 -31.66 363.01 -34.1 Q 364.89 -36.54 368.25 -37.95 Q 371.62 -39.36 375.76 -39.36 L 375.76 -39.36 Q 377.25 -39.36 378.78 -39.17 Q 380.3 -38.97 381.94 -38.57 Q 383.58 -38.16 384.99 -37.44 Q 386.39 -36.71 387.52 -35.74 Q 388.65 -34.76 389.3 -33.33 Q 389.95 -31.89 389.95 -30.16 L 389.95 -30.16 L 389.95 -29.91 Q 389.92 -28.74 389.56 -27.8 Q 389.19 -26.86 388.18 -26.18 Q 387.18 -25.49 385.63 -25.49 L 385.63 -25.49 Q 383.68 -25.49 382.32 -26.56 Q 380.96 -27.63 380.96 -29.43 L 380.96 -29.43 Q 380.96 -30.75 381.68 -31.98 Q 382.41 -33.21 383.3 -33.69 L 383.3 -33.69 Q 381.24 -34.58 377.89 -34.58 L 377.89 -34.58 Q 368.95 -34.58 368.57 -29.96 L 368.57 -29.96 Q 368.57 -29 368.84 -28.32 Q 369.1 -27.65 369.94 -26.86 Q 370.78 -26.08 372.4 -25.26 Q 374.03 -24.45 376.64 -23.46 L 376.64 -23.46 Q 379.72 -22.29 381.68 -21.46 Q 383.65 -20.62 385.46 -19.67 Q 387.26 -18.71 388.27 -17.86 Q 389.29 -17.01 390.08 -15.91 Q 390.86 -14.8 391.19 -13.57 Q 391.52 -12.34 391.63 -10.71 L 391.63 -10.71 L 391.63 -10.31 Q 391.63 -8.07 390.72 -6.13 Q 389.82 -4.19 388.06 -2.64 Q 386.29 -1.09 383.36 -0.2 Q 380.43 0.69 376.64 0.69 L 376.64 0.69 Q 373.57 0.69 370.79 0.08 Q 368.01 -0.53 365.73 -1.73 Q 363.44 -2.92 362.08 -4.9 Q 360.72 -6.88 360.72 -9.42 Z M 397.64 5.66 L 392.69 5.66 L 392.69 10.18 L 409.55 10.18 L 409.55 5.51 L 404.14 5.51 L 404.14 -3.43 Q 405.39 -1.35 407.38 -0.33 Q 409.37 0.69 411.73 0.69 L 411.73 0.69 Q 415.19 0.69 417.8 -1.21 Q 420.42 -3.1 421.76 -6.33 Q 423.11 -9.57 423.11 -13.63 Q 423.11 -17.7 421.78 -20.93 Q 420.44 -24.17 417.92 -26.08 Q 415.39 -27.98 412.09 -27.98 L 412.09 -27.98 Q 406.4 -27.98 404.14 -22.47 L 404.14 -22.47 L 404.14 -27.24 L 392.69 -27.24 L 392.69 -23.23 L 397.64 -23.23 L 397.64 5.66 Z M 404.14 -12.42 L 404.14 -12.42 Q 404.14 -17.67 405.67 -20.52 Q 407.19 -23.36 410.29 -23.36 L 410.29 -23.36 Q 411.86 -23.36 413.05 -22.52 Q 414.25 -21.68 414.92 -20.27 Q 415.59 -18.87 415.92 -17.27 Q 416.25 -15.67 416.25 -13.94 L 416.25 -13.94 Q 416.25 -12.44 416.11 -11.1 Q 415.97 -9.75 415.58 -8.32 Q 415.19 -6.88 414.55 -5.85 Q 413.92 -4.82 412.84 -4.15 Q 411.76 -3.48 410.34 -3.48 L 410.34 -3.48 Q 408.64 -3.48 407.39 -4.27 Q 406.15 -5.05 405.46 -6.39 Q 404.78 -7.72 404.46 -9.22 Q 404.14 -10.71 404.14 -12.42 Z M 426.03 -27.24 L 426.03 -23.23 L 431.13 -23.23 L 431.13 -4.37 L 426.08 -4.37 L 426.08 0 L 442 0 L 442 -4.37 L 437.58 -4.37 L 437.58 -27.24 L 426.03 -27.24 Z M 429.51 -36.41 L 429.51 -36.41 Q 429.51 -34.63 430.8 -33.34 Q 432.1 -32.04 433.88 -32.04 L 433.88 -32.04 Q 435.68 -32.04 436.99 -33.34 Q 438.29 -34.63 438.29 -36.41 Q 438.29 -38.19 436.97 -39.51 Q 435.65 -40.83 433.88 -40.83 Q 432.1 -40.83 430.8 -39.52 Q 429.51 -38.21 429.51 -36.41 Z M 443.24 -4.37 L 443.24 0 L 459.21 0 L 459.21 -4.37 L 454.57 -4.37 L 454.57 -13.63 Q 454.57 -22.95 461.02 -23.46 L 461.02 -23.46 Q 461.22 -23.49 461.4 -23.49 L 461.4 -23.49 Q 462.13 -23.51 462.85 -23.26 L 462.85 -23.26 Q 463.73 -22.95 464.51 -22.29 Q 465.28 -21.63 465.75 -20.4 Q 466.22 -19.17 466.22 -17.52 L 466.22 -17.52 L 466.22 -4.37 L 461.6 -4.37 L 461.6 0 L 477.34 0 L 477.34 -4.37 L 472.72 -4.37 L 472.72 -18.1 Q 472.72 -20.59 472.06 -22.47 Q 471.4 -24.35 470.44 -25.37 Q 469.47 -26.38 468.18 -27 Q 466.88 -27.63 465.85 -27.8 Q 464.83 -27.98 463.79 -27.98 L 463.79 -27.98 Q 460.66 -27.98 458.15 -26.63 Q 455.63 -25.29 454.42 -22.42 L 454.42 -22.42 L 454.42 -27.5 L 443.24 -26.94 L 443.24 -23.23 L 448.07 -23.23 L 448.07 -4.37 L 443.24 -4.37 Z M 478.97 -13.58 L 478.97 -13.58 Q 478.97 -17.54 480.67 -20.87 Q 482.37 -24.2 485.35 -26.11 Q 488.34 -28.03 491.92 -28.03 L 491.92 -28.03 Q 494.61 -28.03 496.89 -27.13 Q 499.18 -26.23 500.92 -24.5 Q 502.66 -22.78 503.67 -20.06 Q 504.69 -17.34 504.74 -13.89 L 504.74 -13.89 L 485.82 -13.89 Q 485.82 -13.76 485.8 -13.48 Q 485.77 -13.2 485.77 -13.05 L 485.77 -13.05 Q 485.77 -11.45 486.21 -9.94 Q 486.64 -8.43 487.5 -7.11 L 487.5 -7.11 Q 488.39 -5.79 489.94 -5.03 L 489.94 -5.03 Q 491.38 -4.29 493.21 -4.32 L 493.21 -4.32 Q 493.34 -4.32 493.47 -4.32 L 493.47 -4.32 Q 495.83 -4.39 497.62 -5.94 Q 499.41 -7.49 500.27 -9.62 L 500.27 -9.62 L 504.03 -7.95 Q 503.01 -3.78 499.84 -1.52 Q 496.67 0.74 492.58 0.74 L 492.58 0.74 L 492.43 0.74 Q 486.56 0.69 482.76 -3.22 Q 478.97 -7.13 478.97 -13.58 Z M 486.03 -17.16 L 486.03 -17.16 L 498.14 -17.16 Q 498.14 -20.24 496.65 -22.2 Q 495.17 -24.17 492.53 -24.17 L 492.53 -24.17 Q 489.94 -24.17 488.17 -22.04 Q 486.41 -19.91 486.03 -17.16 Z M 521.4 -19.7 L 521.4 -19.7 Q 521.4 -23.46 522.78 -27.02 Q 524.16 -30.57 526.58 -33.31 Q 528.99 -36.05 532.54 -37.71 Q 536.1 -39.36 540.16 -39.36 L 540.16 -39.36 Q 542.12 -39.36 544.04 -38.91 Q 545.97 -38.47 547.79 -37.51 Q 549.61 -36.56 550.99 -35.22 Q 552.37 -33.87 553.21 -31.92 Q 554.05 -29.96 554.05 -27.68 L 554.05 -27.68 Q 554.05 -25.9 552.7 -24.41 Q 551.36 -22.93 549.07 -22.93 L 549.07 -22.93 Q 547.24 -22.93 546.05 -23.91 Q 544.86 -24.88 544.76 -26.63 L 544.76 -26.63 L 544.76 -26.99 Q 544.76 -28.97 546.06 -30.01 Q 547.37 -31.05 548.84 -31.05 L 548.84 -31.05 Q 547.73 -32.7 545.85 -33.58 Q 543.97 -34.46 540.9 -34.48 L 540.9 -34.48 Q 540.85 -34.48 540.77 -34.48 L 540.77 -34.48 Q 538.66 -34.48 536.88 -33.64 L 536.88 -33.64 Q 535.06 -32.78 533.8 -31.31 Q 532.54 -29.83 531.67 -27.89 Q 530.79 -25.95 530.38 -23.85 Q 529.98 -21.76 529.98 -19.6 L 529.98 -19.6 Q 529.98 -17.34 530.41 -15.21 Q 530.84 -13.08 531.77 -11.16 Q 532.7 -9.24 534 -7.79 Q 535.31 -6.35 537.18 -5.51 Q 539.04 -4.67 541.25 -4.67 L 541.25 -4.67 Q 543.13 -4.67 544.68 -5.23 Q 546.23 -5.79 547.26 -6.64 Q 548.29 -7.49 549.08 -8.75 Q 549.88 -10 550.34 -11.16 Q 550.8 -12.31 551.15 -13.74 L 551.15 -13.74 L 555.83 -13.74 Q 554.84 -6.91 550.7 -3.11 Q 546.56 0.69 539.45 0.69 L 539.45 0.69 Q 535.34 0.69 531.9 -0.96 Q 528.46 -2.62 526.18 -5.43 Q 523.91 -8.25 522.65 -11.93 Q 521.4 -15.62 521.4 -19.7 Z M 558.67 -6.04 L 558.67 -6.04 Q 558.67 -7.77 559.56 -9.12 Q 560.45 -10.46 561.87 -11.3 Q 563.29 -12.14 565 -12.82 Q 566.72 -13.51 568.45 -14.12 Q 570.17 -14.73 571.59 -15.39 Q 573.02 -16.05 573.9 -17.06 Q 574.79 -18.08 574.79 -19.4 L 574.79 -19.4 Q 574.79 -24.76 569.49 -24.76 L 569.49 -24.76 Q 567.23 -24.76 565.53 -23.92 L 565.53 -23.92 Q 566.36 -23.82 567.13 -22.67 Q 567.89 -21.53 567.89 -20.44 L 567.89 -20.44 L 567.89 -20.24 Q 567.89 -18.69 566.73 -17.63 Q 565.58 -16.58 563.72 -16.58 L 563.72 -16.58 Q 561.79 -16.58 560.68 -17.8 Q 559.56 -19.02 559.56 -20.9 L 559.56 -20.9 L 559.56 -21 Q 559.58 -23.08 561.15 -24.72 Q 562.71 -26.36 565.08 -27.19 Q 567.46 -28.03 570.07 -28.03 L 570.07 -28.03 Q 571.8 -28.03 573.33 -27.76 Q 574.87 -27.5 576.35 -26.85 Q 577.84 -26.2 578.91 -25.19 Q 579.97 -24.17 580.63 -22.55 Q 581.29 -20.92 581.29 -18.87 L 581.29 -18.87 L 581.29 -8.05 Q 581.29 -3.58 583.83 -3.58 L 583.83 -3.58 Q 584.62 -3.58 585.14 -3.96 Q 585.66 -4.34 585.89 -5.04 Q 586.12 -5.74 586.21 -6.41 Q 586.29 -7.08 586.29 -7.95 L 586.29 -7.95 L 586.29 -11.32 L 589.67 -11.32 L 589.67 -7.79 Q 589.67 -5.31 589.1 -3.57 Q 588.53 -1.83 587.49 -0.93 Q 586.45 -0.03 585.25 0.36 Q 584.06 0.74 582.54 0.74 L 582.54 0.74 L 582.33 0.74 Q 576.44 0.63 575.1 -4.32 L 575.1 -4.32 Q 573.73 -2.03 571.29 -0.67 Q 568.85 0.69 565.86 0.69 L 565.86 0.69 Q 562.58 0.69 560.63 -1.05 Q 558.67 -2.79 558.67 -6.04 Z M 564.87 -6.2 L 564.87 -6.2 Q 564.87 -4.93 565.42 -4.13 Q 565.98 -3.33 567.2 -3.33 L 567.2 -3.33 Q 568.47 -3.33 570.21 -4.2 Q 571.95 -5.08 573.29 -6.56 Q 574.64 -8.05 574.64 -9.52 L 574.64 -9.52 L 574.64 -14.14 Q 573.07 -12.87 571.35 -11.84 Q 569.64 -10.82 568.58 -10.3 Q 567.53 -9.78 566.62 -9.19 Q 565.7 -8.61 565.28 -7.91 Q 564.87 -7.21 564.87 -6.2 Z M 595.82 -23.23 L 590.94 -23.23 L 590.94 -26.94 L 602.16 -27.55 L 602.16 -22.62 Q 603.05 -24.91 605.02 -26.23 Q 606.99 -27.55 609.55 -27.68 L 609.55 -27.68 Q 609.68 -27.68 609.83 -27.68 L 609.83 -27.68 Q 611.84 -27.68 613.31 -26.61 L 613.31 -26.61 Q 614.88 -25.49 614.86 -22.93 L 614.86 -22.93 Q 614.86 -20.92 613.59 -19.69 Q 612.32 -18.46 610.75 -18.46 L 610.75 -18.46 Q 609.25 -18.46 608.11 -19.32 Q 606.96 -20.19 606.96 -21.73 L 606.96 -21.73 Q 606.96 -23.41 607.42 -23.77 L 607.42 -23.77 Q 605.85 -23.64 604.78 -22.69 Q 603.71 -21.73 603.21 -20.13 Q 602.7 -18.54 602.51 -16.96 Q 602.32 -15.39 602.32 -13.41 L 602.32 -13.41 L 602.32 -4.37 L 607.8 -4.37 L 607.8 0 L 591.2 0 L 591.2 -4.37 L 595.82 -4.37 L 595.82 -23.23 Z M 616.21 -13.58 L 616.21 -13.58 Q 616.21 -17.54 617.91 -20.87 Q 619.61 -24.2 622.59 -26.11 Q 625.57 -28.03 629.15 -28.03 L 629.15 -28.03 Q 631.85 -28.03 634.13 -27.13 Q 636.42 -26.23 638.16 -24.5 Q 639.89 -22.78 640.91 -20.06 Q 641.93 -17.34 641.98 -13.89 L 641.98 -13.89 L 623.06 -13.89 Q 623.06 -13.76 623.04 -13.48 Q 623.01 -13.2 623.01 -13.05 L 623.01 -13.05 Q 623.01 -11.45 623.44 -9.94 Q 623.87 -8.43 624.74 -7.11 L 624.74 -7.11 Q 625.63 -5.79 627.17 -5.03 L 627.17 -5.03 Q 628.62 -4.29 630.45 -4.32 L 630.45 -4.32 Q 630.58 -4.32 630.7 -4.32 L 630.7 -4.32 Q 633.06 -4.39 634.85 -5.94 Q 636.64 -7.49 637.51 -9.62 L 637.51 -9.62 L 641.27 -7.95 Q 640.25 -3.78 637.08 -1.52 Q 633.9 0.74 629.81 0.74 L 629.81 0.74 L 629.66 0.74 Q 623.8 0.69 620 -3.22 Q 616.21 -7.13 616.21 -13.58 Z M 623.26 -17.16 L 623.26 -17.16 L 635.38 -17.16 Q 635.38 -20.24 633.89 -22.2 Q 632.4 -24.17 629.76 -24.17 L 629.76 -24.17 Q 627.17 -24.17 625.41 -22.04 Q 623.64 -19.91 623.26 -17.16 Z" stroke-linecap="round" />
</g>
<g transform="matrix(1.5320694375165846 0 0 1.5320694375165846 640.0153846153846 445.82305068624487)" style="" id="logo-logo"  >
	<g transform="matrix(0.1691 0 0 -0.1691 -20.47460000000001 0)"  >
<path style="stroke: none; stroke-width: 1; stroke-dasharray: none; stroke-linecap: butt; stroke-dashoffset: 0; stroke-linejoin: miter; stroke-miterlimit: 10; fill: rgb(35,103,109); fill-rule: nonzero; opacity: 1;"  paint-order="stroke"  transform=" translate(-1503.945, -1300)" d="m 1407.29 507 c 0 0 149.54 296.422 61.53 767.67 c -61.53 329.48 -9.66 745.94 131.78 818.33 c 0 0 -192.22 -298.19 -34 -805.12 C 1677.82 931.559 1480.79 574.531 1407.29 507" stroke-linecap="round" />
</g>
	<g transform="matrix(0.1691 0 0 -0.1691 12.965100000000007 8.87700000000001)"  >
<path style="stroke: none; stroke-width: 1; stroke-dasharray: none; stroke-linecap: butt; stroke-dashoffset: 0; stroke-linejoin: miter; stroke-miterlimit: 10; fill: rgb(35,103,109); fill-rule: nonzero; opacity: 1;"  paint-order="stroke"  transform=" translate(-1701.6550000000002, -1247.5149999999999)" d="m 1760.48 1247.51 c 0 -32.48 -26.34 -58.82 -58.83 -58.82 c -32.49 0 -58.82 26.34 -58.82 58.82 c 0 32.49 26.33 58.83 58.82 58.83 c 32.49 0 58.83 -26.34 58.83 -58.83" stroke-linecap="round" />
</g>
	<g transform="matrix(0.1691 0 0 -0.1691 4.418700000000001 -20.63020000000003)"  >
<path style="stroke: none; stroke-width: 1; stroke-dasharray: none; stroke-linecap: butt; stroke-dashoffset: 0; stroke-linejoin: miter; stroke-miterlimit: 10; fill: rgb(35,103,109); fill-rule: nonzero; opacity: 1;"  paint-order="stroke"  transform=" translate(-1651.125, -1421.975)" d="m 1701.65 1421.97 c 0 -27.9 -22.62 -50.52 -50.52 -50.52 c -27.91 0 -50.53 22.62 -50.53 50.52 c 0 27.91 22.62 50.53 50.53 50.53 c 27.9 0 50.52 -22.62 50.52 -50.53" stroke-linecap="round" />
</g>
	<g transform="matrix(0.1691 0 0 -0.1691 15.309300000000007 38.38429999999994)"  >
<path style="stroke: none; stroke-width: 1; stroke-dasharray: none; stroke-linecap: butt; stroke-dashoffset: 0; stroke-linejoin: miter; stroke-miterlimit: 10; fill: rgb(35,103,109); fill-rule: nonzero; opacity: 1;"  paint-order="stroke"  transform=" translate(-1715.5149999999999, -1073.0549999999998)" d="m 1766.04 1073.06 c 0 -27.91 -22.62 -50.53 -50.53 -50.53 c -27.9 0 -50.52 22.62 -50.52 50.53 c 0 27.9 22.62 50.52 50.52 50.52 c 27.91 0 50.53 -22.62 50.53 -50.52" stroke-linecap="round" />
</g>
	<g transform="matrix(0.1691 0 0 -0.1691 -1.8063000000000216 -46.92810000000006)"  >
<path style="stroke: none; stroke-width: 1; stroke-dasharray: none; stroke-linecap: butt; stroke-dashoffset: 0; stroke-linejoin: miter; stroke-miterlimit: 10; fill: rgb(35,103,109); fill-rule: nonzero; opacity: 1;"  paint-order="stroke"  transform=" translate(-1614.3200000000002, -1577.46)" d="m 1654.17 1577.46 c 0 -22.01 -17.84 -39.85 -39.85 -39.85 c -22.01 0 -39.85 17.84 -39.85 39.85 c 0 22.01 17.84 39.85 39.85 39.85 c 22.01 0 39.85 -17.84 39.85 -39.85" stroke-linecap="round" />
</g>
	<g transform="matrix(0.1691 0 0 -0.1691 11.353200000000015 64.68209999999996)"  >
<path style="stroke: none; stroke-width: 1; stroke-dasharray: none; stroke-linecap: butt; stroke-dashoffset: 0; stroke-linejoin: miter; stroke-miterlimit: 10; fill: rgb(35,103,109); fill-rule: nonzero; opacity: 1;"  paint-order="stroke"  transform=" translate(-1692.125, -917.5705)" d="m 1731.98 917.57 c 0 -22.011 -17.85 -39.851 -39.86 -39.851 c -22.01 0 -39.85 17.84 -39.85 39.851 c 0 22.008 17.84 39.852 39.85 39.852 c 22.01 0 39.86 -17.844 39.86 -39.852" stroke-linecap="round" />
</g>
	<g transform="matrix(0.1691 0 0 -0.1691 -7.123100000000022 -69.99730000000002)"  >
<path style="stroke: none; stroke-width: 1; stroke-dasharray: none; stroke-linecap: butt; stroke-dashoffset: 0; stroke-linejoin: miter; stroke-miterlimit: 10; fill: rgb(35,103,109); fill-rule: nonzero; opacity: 1;"  paint-order="stroke"  transform=" translate(-1582.8849999999998, -1713.855)" d="m 1614.32 1713.86 c 0 -17.37 -14.07 -31.44 -31.43 -31.44 c -17.37 0 -31.44 14.07 -31.44 31.44 c 0 17.35 14.07 31.43 31.44 31.43 c 17.36 0 31.43 -14.08 31.43 -31.43" stroke-linecap="round" />
</g>
	<g transform="matrix(0.1691 0 0 -0.1691 4.934599999999989 87.75159999999997)"  >
<path style="stroke: none; stroke-width: 1; stroke-dasharray: none; stroke-linecap: butt; stroke-dashoffset: 0; stroke-linejoin: miter; stroke-miterlimit: 10; fill: rgb(35,103,109); fill-rule: nonzero; opacity: 1;"  paint-order="stroke"  transform=" translate(-1654.1749999999997, -781.1734999999999)" d="m 1685.61 781.18 c 0 -17.371 -14.07 -31.442 -31.44 -31.442 c -17.36 0 -31.43 14.071 -31.43 31.442 c 0 17.359 14.07 31.429 31.43 31.429 c 17.37 0 31.44 -14.07 31.44 -31.429" stroke-linecap="round" />
</g>
	<g transform="matrix(0.1691 0 0 -0.1691 0 43.79209999999998)"  >
<path style="stroke: none; stroke-width: 1; stroke-dasharray: none; stroke-linecap: butt; stroke-dashoffset: 0; stroke-linejoin: miter; stroke-miterlimit: 10; fill: rgb(112,207,206); fill-rule: nonzero; opacity: 1;"  paint-order="stroke"  transform=" translate(-1624.9996608438273, -1041.0817717348993)" d="m 1698.2 938.98 c -236.96 -4.82 -427.56 77.58 -425.72 184.06 c 0.59 34.37 21.39 66.98 56.94 95.64 c -71.58 -43.62 -115.62 -99.07 -115.42 -157.42 c 0.43 -122.061 192.92 -209.99 429.94 -196.389 c 175.38 10.059 325.76 72.949 392.06 154.409 c -79.35 -46.28 -201.24 -77.518 -337.8 -80.3" stroke-linecap="round" />
</g>
	<g transform="matrix(0.1691 0 0 -0.1691 1.40300000000002 10.080000000000013)"  >
<path style="stroke: none; stroke-width: 1; stroke-dasharray: none; stroke-linecap: butt; stroke-dashoffset: 0; stroke-linejoin: miter; stroke-miterlimit: 10; fill: rgb(112,207,206); fill-rule: nonzero; opacity: 1;"  paint-order="stroke"  transform=" translate(-1633.2946172473453, -1240.402617564624)" d="m 1704.76 1140.73 c -231.34 -4.71 -417.43 75.74 -415.63 179.69 c 0.58 33.56 20.88 65.39 55.59 93.37 c -69.88 -42.58 -112.89 -96.72 -112.68 -153.68 c 0.42 -119.17 188.34 -205.02 419.74 -191.74 c 171.23 9.83 318.04 71.23 382.77 150.75 c -77.46 -45.18 -196.47 -75.68 -329.79 -78.39" stroke-linecap="round" />
</g>
</g>
</svg>